<?xml version="1.0" encoding="UTF-8"?><svg id="Layer_2" xmlns="http://www.w3.org/2000/svg" viewBox="0 0 402.8701 180"><g id="Components"><g id="eb8ced2e-1073-404b-ab52-0b8b1143cde6_1"><path d="M201.1938,41.8848l-4.6011,5.0327v9.873h-7.2373V23.2412h7.2373v13.9946l12.6528-13.9946h8.9624l-12.0776,13.2759,13.2759,20.2734h-9.0581l-9.1543-14.9058Z" style="fill:#001e4c;"/><path d="M221.8691,22.1387h6.6621v34.6519h-6.6621V22.1387Z" style="fill:#001e4c;"/><path d="M253.7866,41.2617v15.5288h-6.6143v-3.355c-.8145,2.2524-3.4985,3.7383-6.8057,3.7383-4.6968,0-7.9082-3.1152-7.9082-7.2368,0-4.7451,3.5469-7.6206,8.8188-7.6206h4.0742c1.1978,0,1.8208-.7671,1.8208-1.7734,0-2.0132-1.5815-3.4028-4.3135-3.4028-2.9233,0-4.4092,1.8213-4.5049,3.834h-5.9434c.2876-4.8403,4.2178-8.7227,10.832-8.7227,6.0864,0,10.5439,3.5469,10.5439,9.0103ZM247.1724,46.8696v-.3354h-4.8882c-2.0132,0-3.4512,1.2461-3.4512,3.1152,0,1.5815,1.3423,2.6836,3.2114,2.6836,3.2588,0,5.1279-2.396,5.1279-5.4634Z" style="fill:#001e4c;"/><path d="M264.9634,22.1387v7.0454h-7.0933v-7.0454h7.0933ZM258.062,32.6348h6.71v24.1558h-6.71v-24.1558Z" style="fill:#001e4c;"/><path d="M269.5005,32.6348h6.6621v2.6362c1.438-1.8691,3.834-3.0195,6.9497-3.0195,6.7578,0,11.0713,4.9365,11.0713,12.4614s-4.6973,12.4609-11.6465,12.4609c-2.7319,0-5.0806-.9106-6.3745-2.54v11.9341h-6.6621v-33.9331ZM287.6172,44.7129c0-4.0742-2.3965-6.7578-5.895-6.7578-3.5947,0-5.9429,2.6836-5.9429,6.7578,0,4.0259,2.3481,6.71,5.9429,6.71,3.4985,0,5.895-2.6841,5.895-6.71Z" style="fill:#001e4c;"/><path d="M320.3667,48.5947c-.9585,5.2241-5.5596,8.5791-11.5029,8.5791-8.1953,0-12.4131-6.4224-12.4131-12.5093,0-6.1348,3.7383-12.4131,11.9341-12.4131,8.5312,0,11.9341,6.2783,11.9341,11.79,0,.9106-.0479,1.6299-.0962,2.1567h-17.3496c.479,3.4033,2.6357,5.5117,5.9907,5.5117,2.6841,0,4.4575-1.0542,4.9849-3.1152h6.5181ZM302.9688,41.981h10.688c-.1919-2.6841-2.061-4.8408-5.272-4.8408-3.0195,0-4.8408,1.4858-5.416,4.8408ZM312.1709,29.1841h-7.0933v-7.0454h7.0933v7.0454Z" style="fill:#001e4c;"/><path d="M322.7251,44.7129c0-7.5249,4.3135-12.4614,11.311-12.4614,3.0195,0,5.3677,1.1504,6.71,2.9238v-13.0366h6.6616v34.6519h-6.6616v-2.6362c-1.3423,1.8691-3.8345,3.0195-6.6143,3.0195-7.0933,0-11.4067-4.9365-11.4067-12.4609ZM341.1294,44.7129c0-4.0742-2.3486-6.7578-5.895-6.7578s-5.8955,2.6836-5.8955,6.7578c0,4.0259,2.3486,6.71,5.8955,6.71s5.895-2.6841,5.895-6.71Z" style="fill:#001e4c;"/><path d="M350.8545,44.7129c0-7.1895,5.3198-12.4614,12.7485-12.4614s12.749,5.272,12.749,12.4614-5.3198,12.4609-12.749,12.4609-12.7485-5.272-12.7485-12.4609ZM369.6421,44.7129c0-4.0264-2.4443-6.7578-6.0391-6.7578s-6.0386,2.7314-6.0386,6.7578c0,3.978,2.4443,6.71,6.0386,6.71s6.0391-2.7319,6.0391-6.71Z" style="fill:#001e4c;"/><path d="M378.1353,48.6426h5.751c.2397,2.1567,1.9175,3.499,4.4097,3.499,2.0605,0,3.4985-1.0063,3.4985-2.3486,0-4.9365-12.9883-.0957-12.9883-10.2563,0-4.2656,3.6904-7.2852,8.627-7.2852,5.7993,0,9.7295,3.1152,9.9688,7.8604h-5.7993c-.2871-2.061-2.1567-3.1636-3.9775-3.1636-1.8696,0-3.1636.8149-3.1636,2.3486,0,4.9365,13.228-.6709,13.228,10.2563,0,4.6011-3.7383,7.6206-9.3936,7.6206-5.8955,0-9.9214-3.3071-10.1606-8.5312Z" style="fill:#001e4c;"/><path d="M186.5278,80.5552h6.8057l5.0806,15.6245,5.0322-15.6245h6.8535l-8.8184,24.1558h-6.1348l-8.8188-24.1558Z" style="fill:#001e4c;"/><path d="M232.1851,89.1821v15.5288h-6.6143v-3.355c-.8145,2.2524-3.4985,3.7383-6.8057,3.7383-4.6968,0-7.9082-3.1152-7.9082-7.2368,0-4.7451,3.5469-7.6206,8.8188-7.6206h4.0742c1.1978,0,1.8208-.7671,1.8208-1.7734,0-2.0132-1.5815-3.4028-4.3135-3.4028-2.9233,0-4.4092,1.8213-4.5049,3.834h-5.9434c.2876-4.8403,4.2178-8.7227,10.832-8.7227,6.0864,0,10.5439,3.5469,10.5439,9.0103ZM225.5708,94.79v-.3354h-4.8882c-2.0132,0-3.4512,1.2461-3.4512,3.1152,0,1.5815,1.3423,2.6836,3.2114,2.6836,3.2588,0,5.1279-2.396,5.1279-5.4634Z" style="fill:#001e4c;"/><path d="M236.7432,70.0591h6.6621v34.6519h-6.6621v-34.6519Z" style="fill:#001e4c;"/><path d="M246.8203,96.563h5.751c.2397,2.1567,1.9175,3.499,4.4097,3.499,2.0605,0,3.4985-1.0063,3.4985-2.3486,0-4.9365-12.9883-.0957-12.9883-10.2563,0-4.2656,3.6904-7.2852,8.627-7.2852,5.7993,0,9.7295,3.1152,9.9688,7.8604h-5.7988c-.2876-2.061-2.1572-3.1636-3.978-3.1636-1.8696,0-3.1636.8149-3.1636,2.3486,0,4.9365,13.228-.6709,13.228,10.2563,0,4.6011-3.7383,7.6206-9.3936,7.6206-5.895,0-9.9214-3.3071-10.1606-8.5312Z" style="fill:#001e4c;"/><path d="M279.2925,73.4141v7.1411h6.4702v5.5596h-6.4702v9.5376c0,2.3486,1.2461,3.4512,3.4028,3.4512h3.0674v5.6074h-3.978c-5.5596,0-9.1543-3.1631-9.1543-8.771v-9.8252h-4.6489v-5.5596h4.6489v-7.1411h6.6621Z" style="fill:#001e4c;"/><path d="M302.2412,104.6152l-3.4028,9.873h-6.3745l3.5469-9.9692-8.771-23.9639h6.8057l5.0806,15.5767,5.0322-15.5767h6.8535l-8.7705,24.0601Z" style="fill:#001e4c;"/><path d="M319.9658,102.0747v2.6362h-6.6621v-34.6519h6.6621v13.0366c1.3418-1.7734,3.6904-2.9238,6.71-2.9238,7.0454,0,11.311,4.9365,11.311,12.4614s-4.2656,12.4609-11.4067,12.4609c-2.7803,0-5.2725-1.1499-6.6143-3.0195ZM331.4204,92.6333c0-4.0742-2.3965-6.7578-5.895-6.7578-3.5947,0-5.9429,2.6836-5.9429,6.7578,0,4.0259,2.3481,6.7095,5.9429,6.7095,3.4985,0,5.895-2.6836,5.895-6.7095Z" style="fill:#001e4c;"/><path d="M348.1958,70.0591v7.0454h-7.0933v-7.0454h7.0933ZM341.2944,80.5552h6.71v24.1558h-6.71v-24.1558Z" style="fill:#001e4c;"/><path d="M352.5503,80.5552h6.71v3.355c1.3418-2.3481,4.0259-3.7383,7.333-3.7383,5.4639,0,9.0103,3.9302,9.0103,9.4897v15.0493h-6.71v-13.5635c0-2.9238-1.8691-5.0327-4.6489-5.0327-2.9233,0-4.9844,2.2529-4.9844,5.3682v13.228h-6.71v-24.1558Z" style="fill:#001e4c;"/><path d="M402.8701,96.5151c-.9585,5.2241-5.5596,8.5791-11.5029,8.5791-8.1953,0-12.4131-6.4224-12.4131-12.5093,0-6.1348,3.7383-12.4131,11.9341-12.4131,8.5312,0,11.9341,6.2783,11.9341,11.79,0,.9106-.0479,1.6299-.0962,2.1567h-17.3496c.479,3.4033,2.6357,5.5117,5.9907,5.5117,2.6841,0,4.4575-1.0542,4.9849-3.1152h6.5181ZM385.4722,89.9014h10.688c-.1919-2.6841-2.061-4.8408-5.272-4.8408-3.0195,0-4.8408,1.4858-5.416,4.8408ZM394.6743,77.1045h-7.0933v-7.0454h7.0933v7.0454Z" style="fill:#001e4c;"/><path d="M198.4619,142.4229l-2.6841,2.6357v7.5728h-6.71v-34.6519h6.71v18.7397l8.3872-8.2437h8.4355l-9.6333,9.4897,10.3999,14.666h-8.0518l-6.8535-10.2085Z" style="fill:#001e4c;"/><path d="M212.6831,140.5537c0-7.1895,5.3198-12.4614,12.7485-12.4614s12.749,5.272,12.749,12.4614-5.3198,12.4609-12.749,12.4609-12.7485-5.272-12.7485-12.4609ZM231.4707,140.5537c0-4.0264-2.4443-6.7578-6.0391-6.7578s-6.0386,2.7314-6.0386,6.7578c0,3.978,2.4443,6.71,6.0386,6.71s6.0391-2.7319,6.0391-6.71Z" style="fill:#001e4c;"/><path d="M241.6885,117.9795h6.6621v34.6519h-6.6621v-34.6519Z" style="fill:#001e4c;"/><path d="M275.7246,144.4355c-.9585,5.2241-5.5596,8.5791-11.5029,8.5791-8.1953,0-12.4131-6.4224-12.4131-12.5093,0-6.1348,3.7383-12.4131,11.9341-12.4131,8.5312,0,11.9341,6.2783,11.9341,11.79,0,.9106-.0479,1.6299-.0962,2.1567h-17.3496c.479,3.4033,2.6357,5.5117,5.9907,5.5117,2.6841,0,4.4575-1.0542,4.9849-3.1152h6.5181ZM258.3267,137.8218h10.688c-.1919-2.6841-2.061-4.8408-5.272-4.8408-3.0195,0-4.8408,1.4858-5.416,4.8408Z" style="fill:#001e4c;"/><path d="M302.7759,128.4756v25.5938c0,5.0322-3.6426,8.3394-9.1064,8.3394h-12.1738v-5.2241h11.1196c2.0127,0,3.4985-1.5815,3.4985-3.8345v-3.1631c-1.2461,1.7734-3.7861,2.8276-6.6143,2.8276-7.1411,0-11.4067-4.9365-11.4067-12.4609s4.2656-12.4614,11.311-12.4614c2.9238,0,5.3198,1.1025,6.6621,2.7798v-2.3965h6.71ZM296.4971,140.5537c0-4.0742-2.3486-6.7578-5.9429-6.7578-3.5469,0-5.895,2.6836-5.895,6.7578s2.3481,6.71,5.895,6.71c3.5942,0,5.9429-2.6362,5.9429-6.71Z" style="fill:#001e4c;"/><path d="M314.4512,117.9795v7.0454h-7.0933v-7.0454h7.0933ZM307.5498,128.4756h6.71v24.1558h-6.71v-24.1558Z" style="fill:#001e4c;"/><path d="M325.5298,128.4756v25.833c0,5.0327-3.0195,8.1001-8.4834,8.1001h-2.6841v-5.2241h1.5815c2.061,0,2.9238-1.3423,2.9238-3.5947v-25.1143h6.6621ZM325.8174,117.9795v7.0454h-7.0938v-7.0454h7.0938Z" style="fill:#001e4c;"/><path d="M350.5654,137.1025v15.5288h-6.6143v-3.355c-.8145,2.2524-3.4985,3.7383-6.8057,3.7383-4.6968,0-7.9082-3.1152-7.9082-7.2368,0-4.7451,3.5469-7.6206,8.8188-7.6206h4.0737c1.1982,0,1.8213-.7671,1.8213-1.7734,0-2.0132-1.5815-3.4028-4.3135-3.4028-2.9233,0-4.4092,1.8213-4.5049,3.834h-5.9434c.2876-4.8403,4.2178-8.7227,10.832-8.7227,6.0864,0,10.5439,3.5469,10.5439,9.0103ZM343.9512,142.7104v-.3354h-4.8887c-2.0127,0-3.4507,1.2461-3.4507,3.1152,0,1.5815,1.3423,2.6836,3.2114,2.6836,3.2588,0,5.1279-2.396,5.1279-5.4634Z" style="fill:#001e4c;"/><rect x=".0001" y="72" width="143.9999" height="27" style="fill:#7746c8;"/><path d="M72,152.7622c-20.0154-17.3031-45.3188-26.7615-72-26.7615v26.9994c20.7339,0,48.1937,12.4911,63,27h18c14.8063-14.5089,42.2661-27,63-27v-26.9994c-26.6812,0-51.9846,9.4584-72,26.7615Z" style="fill:#001e4c;"/><path d="M96,0v9.3255c0,6.3199-6.5946,10.476-12.296,7.7494L48,0v9.3255c0,6.3199-6.5946,10.476-12.296,7.7494L.0002,0v36h143.9998v-13.0447L96,0Z" style="fill:#0b93b7;"/></g></g></svg>